<mxfile host="app.diagrams.net" modified="2020-10-17T19:16:57.239Z" agent="5.0 (Windows)" etag="h9omcW6TjQkyVNNd5BsT" version="13.8.0" type="github">
  <diagram id="DCbbMUSgyCismHPWZGug" name="Page-1">
    <mxGraphModel dx="868" dy="479" grid="1" gridSize="10" guides="1" tooltips="1" connect="1" arrows="1" fold="1" page="1" pageScale="1" pageWidth="850" pageHeight="1100" math="0" shadow="0">
      <root>
        <mxCell id="0" />
        <mxCell id="1" parent="0" />
        <mxCell id="VcHWPaSPVvTVFgTvSCwP-10" style="edgeStyle=orthogonalEdgeStyle;rounded=0;orthogonalLoop=1;jettySize=auto;html=1;entryX=0.5;entryY=0;entryDx=0;entryDy=0;" edge="1" parent="1" source="VcHWPaSPVvTVFgTvSCwP-1" target="VcHWPaSPVvTVFgTvSCwP-3">
          <mxGeometry relative="1" as="geometry" />
        </mxCell>
        <mxCell id="VcHWPaSPVvTVFgTvSCwP-1" value="" style="ellipse;whiteSpace=wrap;html=1;aspect=fixed;fillColor=#000000;strokeColor=#FF0000;" vertex="1" parent="1">
          <mxGeometry x="380" y="60" width="35" height="35" as="geometry" />
        </mxCell>
        <mxCell id="VcHWPaSPVvTVFgTvSCwP-11" style="edgeStyle=orthogonalEdgeStyle;rounded=0;orthogonalLoop=1;jettySize=auto;html=1;entryX=0.5;entryY=0;entryDx=0;entryDy=0;" edge="1" parent="1" source="VcHWPaSPVvTVFgTvSCwP-3" target="VcHWPaSPVvTVFgTvSCwP-4">
          <mxGeometry relative="1" as="geometry" />
        </mxCell>
        <mxCell id="VcHWPaSPVvTVFgTvSCwP-14" style="edgeStyle=orthogonalEdgeStyle;rounded=0;orthogonalLoop=1;jettySize=auto;html=1;entryX=0.5;entryY=0;entryDx=0;entryDy=0;" edge="1" parent="1" source="VcHWPaSPVvTVFgTvSCwP-3" target="VcHWPaSPVvTVFgTvSCwP-13">
          <mxGeometry relative="1" as="geometry" />
        </mxCell>
        <mxCell id="VcHWPaSPVvTVFgTvSCwP-3" value="&lt;div&gt;&lt;font style=&quot;font-size: 18px&quot;&gt;LSTM&lt;/font&gt;&lt;/div&gt;&lt;div&gt;&lt;font style=&quot;font-size: 18px&quot;&gt; Layer 1&lt;/font&gt;&lt;/div&gt;" style="rounded=1;whiteSpace=wrap;html=1;strokeColor=#000000;fillColor=#FFFFFF;" vertex="1" parent="1">
          <mxGeometry x="338" y="130" width="120" height="60" as="geometry" />
        </mxCell>
        <mxCell id="VcHWPaSPVvTVFgTvSCwP-15" style="edgeStyle=orthogonalEdgeStyle;rounded=0;orthogonalLoop=1;jettySize=auto;html=1;entryX=0.5;entryY=1;entryDx=0;entryDy=0;" edge="1" parent="1" source="VcHWPaSPVvTVFgTvSCwP-4" target="VcHWPaSPVvTVFgTvSCwP-13">
          <mxGeometry relative="1" as="geometry" />
        </mxCell>
        <mxCell id="VcHWPaSPVvTVFgTvSCwP-4" value="&lt;div&gt;&lt;font style=&quot;font-size: 18px&quot;&gt;LSTM&lt;/font&gt;&lt;/div&gt;&lt;div&gt;&lt;font style=&quot;font-size: 18px&quot;&gt; Layer 2&lt;br&gt;&lt;/font&gt;&lt;/div&gt;" style="rounded=1;whiteSpace=wrap;html=1;strokeColor=#000000;fillColor=#FFFFFF;" vertex="1" parent="1">
          <mxGeometry x="337.5" y="240" width="120" height="60" as="geometry" />
        </mxCell>
        <mxCell id="VcHWPaSPVvTVFgTvSCwP-5" value="" style="ellipse;whiteSpace=wrap;html=1;aspect=fixed;fillColor=#000000;strokeColor=#FF0000;" vertex="1" parent="1">
          <mxGeometry x="580" y="197.5" width="35" height="35" as="geometry" />
        </mxCell>
        <mxCell id="VcHWPaSPVvTVFgTvSCwP-6" value="Start" style="text;html=1;strokeColor=none;fillColor=none;align=center;verticalAlign=middle;whiteSpace=wrap;rounded=0;" vertex="1" parent="1">
          <mxGeometry x="378" y="40" width="40" height="20" as="geometry" />
        </mxCell>
        <mxCell id="VcHWPaSPVvTVFgTvSCwP-12" value="End" style="text;html=1;strokeColor=none;fillColor=none;align=center;verticalAlign=middle;whiteSpace=wrap;rounded=0;" vertex="1" parent="1">
          <mxGeometry x="577.5" y="230" width="40" height="20" as="geometry" />
        </mxCell>
        <mxCell id="VcHWPaSPVvTVFgTvSCwP-18" style="edgeStyle=orthogonalEdgeStyle;rounded=0;orthogonalLoop=1;jettySize=auto;html=1;" edge="1" parent="1" source="VcHWPaSPVvTVFgTvSCwP-13">
          <mxGeometry relative="1" as="geometry">
            <mxPoint x="580" y="215" as="targetPoint" />
          </mxGeometry>
        </mxCell>
        <mxCell id="VcHWPaSPVvTVFgTvSCwP-13" value="" style="ellipse;whiteSpace=wrap;html=1;aspect=fixed;strokeColor=#000000;fillColor=#FFFFFF;" vertex="1" parent="1">
          <mxGeometry x="520" y="200" width="30" height="30" as="geometry" />
        </mxCell>
      </root>
    </mxGraphModel>
  </diagram>
</mxfile>
